<svg height="2606" width="720" xmlns="http://www.w3.org/2000/svg">
<rect height="2606" fill="#555" width="720"></rect>
<text fill="#7f7" font-family="Courier New" font-size="12" xml:space="preserve">
<tspan x="10" y="26">85 megabytes installed</tspan>
<tspan x="10" y="42"></tspan>
<tspan x="10" y="58">node_modules</tspan>
<tspan x="10" y="74">└─┬ antd@2.9.1 </tspan>
<tspan x="10" y="90">  ├── array-tree-filter@1.0.1 </tspan>
<tspan x="10" y="106">  ├─┬ babel-runtime@6.23.0 </tspan>
<tspan x="10" y="122">  │ ├── core-js@2.4.1 </tspan>
<tspan x="10" y="138">  │ └── regenerator-runtime@0.10.3 </tspan>
<tspan x="10" y="154">  ├── classnames@2.2.5 </tspan>
<tspan x="10" y="170">  ├─┬ css-animation@1.3.2 </tspan>
<tspan x="10" y="186">  │ └─┬ component-classes@1.2.6 </tspan>
<tspan x="10" y="202">  │   └── component-indexof@0.0.3 </tspan>
<tspan x="10" y="218">  ├─┬ dom-closest@0.2.0 </tspan>
<tspan x="10" y="234">  │ └── dom-matches@2.0.0 </tspan>
<tspan x="10" y="250">  ├── lodash.debounce@4.0.8 </tspan>
<tspan x="10" y="266">  ├── moment@2.18.1 </tspan>
<tspan x="10" y="282">  ├── object-assign@4.1.1 </tspan>
<tspan x="10" y="298">  ├── omit.js@0.1.0 </tspan>
<tspan x="10" y="314">  ├─┬ rc-animate@2.3.6 </tspan>
<tspan x="10" y="330">  │ └─┬ prop-types@15.5.8 </tspan>
<tspan x="10" y="346">  │   └─┬ fbjs@0.8.12 </tspan>
<tspan x="10" y="362">  │     ├── core-js@1.2.7 </tspan>
<tspan x="10" y="378">  │     ├─┬ isomorphic-fetch@2.2.1 </tspan>
<tspan x="10" y="394">  │     │ ├─┬ node-fetch@1.6.3 </tspan>
<tspan x="10" y="410">  │     │ │ ├─┬ encoding@0.1.12 </tspan>
<tspan x="10" y="426">  │     │ │ │ └── iconv-lite@0.4.15 </tspan>
<tspan x="10" y="442">  │     │ │ └── is-stream@1.1.0 </tspan>
<tspan x="10" y="458">  │     │ └── whatwg-fetch@2.0.3 </tspan>
<tspan x="10" y="474">  │     ├─┬ promise@7.1.1 </tspan>
<tspan x="10" y="490">  │     │ └── asap@2.0.5 </tspan>
<tspan x="10" y="506">  │     ├── setimmediate@1.0.5 </tspan>
<tspan x="10" y="522">  │     └── ua-parser-js@0.7.12 </tspan>
<tspan x="10" y="538">  ├─┬ rc-calendar@7.8.0 </tspan>
<tspan x="10" y="554">  │ ├─┬ rc-trigger@1.10.1 </tspan>
<tspan x="10" y="570">  │ │ └─┬ rc-align@2.3.4 </tspan>
<tspan x="10" y="586">  │ │   └── dom-align@1.5.3 </tspan>
<tspan x="10" y="602">  │ └── rc-util@3.4.1 </tspan>
<tspan x="10" y="618">  ├─┬ rc-cascader@0.11.2 </tspan>
<tspan x="10" y="634">  │ └── shallow-equal@1.0.0 </tspan>
<tspan x="10" y="650">  ├── rc-checkbox@1.5.0 </tspan>
<tspan x="10" y="666">  ├── rc-collapse@1.6.12 </tspan>
<tspan x="10" y="682">  ├── rc-dialog@6.5.8 </tspan>
<tspan x="10" y="698">  ├── rc-dropdown@1.4.10 </tspan>
<tspan x="10" y="714">  ├─┬ rc-editor-mention@0.5.5 </tspan>
<tspan x="10" y="730">  │ ├── dom-scroll-into-view@1.2.1 </tspan>
<tspan x="10" y="746">  │ ├─┬ draft-js@0.10.0 </tspan>
<tspan x="10" y="762">  │ │ └── immutable@3.7.6 </tspan>
<tspan x="10" y="778">  │ ├── immutable@3.8.1 </tspan>
<tspan x="10" y="794">  │ ├─┬ rc-editor-core@0.6.19 </tspan>
<tspan x="10" y="810">  │ │ ├── lodash@4.17.4 </tspan>
<tspan x="10" y="826">  │ │ ├── UNMET PEER DEPENDENCY react@^0.14.0 || ^15.0.0-rc</tspan>
<tspan x="10" y="842">  │ │ └── UNMET PEER DEPENDENCY react-dom@^0.14.0 || ^15.0.0-rc</tspan>
<tspan x="10" y="858">  │ ├── UNMET PEER DEPENDENCY react@^0.14.0 || ^15.0.0-rc</tspan>
<tspan x="10" y="874">  │ └── UNMET PEER DEPENDENCY react-dom@^0.14.0 || ^15.0.0-rc</tspan>
<tspan x="10" y="890">  ├─┬ rc-form@1.3.1 </tspan>
<tspan x="10" y="906">  │ ├── async-validator@1.6.8 </tspan>
<tspan x="10" y="922">  │ ├── hoist-non-react-statics@1.2.0 </tspan>
<tspan x="10" y="938">  │ ├── lodash.get@4.4.2 </tspan>
<tspan x="10" y="954">  │ ├── lodash.has@4.5.2 </tspan>
<tspan x="10" y="970">  │ └── lodash.set@4.3.2 </tspan>
<tspan x="10" y="986">  ├─┬ rc-input-number@3.4.13 </tspan>
<tspan x="10" y="1002">  │ ├── create-react-class@15.5.2 </tspan>
<tspan x="10" y="1018">  │ └── rc-touchable@1.0.13 </tspan>
<tspan x="10" y="1034">  ├── rc-menu@5.0.10 </tspan>
<tspan x="10" y="1050">  ├── rc-notification@1.4.1 </tspan>
<tspan x="10" y="1066">  ├── rc-pagination@1.8.5 </tspan>
<tspan x="10" y="1082">  ├── rc-progress@2.1.0 </tspan>
<tspan x="10" y="1098">  ├── rc-radio@2.0.0 </tspan>
<tspan x="10" y="1114">  ├── rc-rate@2.1.0 </tspan>
<tspan x="10" y="1130">  ├─┬ rc-select@6.8.2 </tspan>
<tspan x="10" y="1146">  │ └── warning@2.1.0 </tspan>
<tspan x="10" y="1162">  ├── rc-slider@7.0.1 </tspan>
<tspan x="10" y="1178">  ├── rc-steps@2.5.1 </tspan>
<tspan x="10" y="1194">  ├── rc-switch@1.4.4 </tspan>
<tspan x="10" y="1210">  ├── rc-table@5.2.15 </tspan>
<tspan x="10" y="1226">  ├─┬ rc-tabs@7.3.1 </tspan>
<tspan x="10" y="1242">  │ ├── UNMET PEER DEPENDENCY react@^0.14.3 || ^15.0.0</tspan>
<tspan x="10" y="1258">  │ └─┬ react-hammerjs@0.5.0 </tspan>
<tspan x="10" y="1274">  │   └── hammerjs@2.0.8 </tspan>
<tspan x="10" y="1290">  ├── rc-time-picker@2.3.4 </tspan>
<tspan x="10" y="1306">  ├── rc-tooltip@3.4.3 </tspan>
<tspan x="10" y="1322">  ├── rc-tree@1.4.6 </tspan>
<tspan x="10" y="1338">  ├── rc-tree-select@1.9.4 </tspan>
<tspan x="10" y="1354">  ├─┬ rc-upload@2.3.4 </tspan>
<tspan x="10" y="1370">  │ └── warning@2.1.0 </tspan>
<tspan x="10" y="1386">  ├─┬ rc-util@4.0.2 </tspan>
<tspan x="10" y="1402">  │ └── add-dom-event-listener@1.0.2 </tspan>
<tspan x="10" y="1418">  ├── UNMET PEER DEPENDENCY react@^0.14.0 || ^15.0.0-0</tspan>
<tspan x="10" y="1434">  ├── UNMET PEER DEPENDENCY react-dom@^0.14.0 || ^15.0.0-0</tspan>
<tspan x="10" y="1450">  ├─┬ react-lazy-load@3.0.11 </tspan>
<tspan x="10" y="1466">  │ ├── eventlistener@0.0.1 </tspan>
<tspan x="10" y="1482">  │ └── lodash.throttle@4.1.1 </tspan>
<tspan x="10" y="1498">  ├─┬ react-slick@0.14.8 </tspan>
<tspan x="10" y="1514">  │ ├─┬ enzyme@2.8.2 </tspan>
<tspan x="10" y="1530">  │ │ ├─┬ cheerio@0.22.0 </tspan>
<tspan x="10" y="1546">  │ │ │ ├─┬ css-select@1.2.0 </tspan>
<tspan x="10" y="1562">  │ │ │ │ ├── boolbase@1.0.0 </tspan>
<tspan x="10" y="1578">  │ │ │ │ ├── css-what@2.1.0 </tspan>
<tspan x="10" y="1594">  │ │ │ │ ├── domutils@1.5.1 </tspan>
<tspan x="10" y="1610">  │ │ │ │ └── nth-check@1.0.1 </tspan>
<tspan x="10" y="1626">  │ │ │ ├─┬ dom-serializer@0.1.0 </tspan>
<tspan x="10" y="1642">  │ │ │ │ └── domelementtype@1.1.3 </tspan>
<tspan x="10" y="1658">  │ │ │ ├── entities@1.1.1 </tspan>
<tspan x="10" y="1674">  │ │ │ ├─┬ htmlparser2@3.9.2 </tspan>
<tspan x="10" y="1690">  │ │ │ │ ├── domelementtype@1.3.0 </tspan>
<tspan x="10" y="1706">  │ │ │ │ ├── domhandler@2.3.0 </tspan>
<tspan x="10" y="1722">  │ │ │ │ ├── inherits@2.0.3 </tspan>
<tspan x="10" y="1738">  │ │ │ │ └─┬ readable-stream@2.2.9 </tspan>
<tspan x="10" y="1754">  │ │ │ │   ├── buffer-shims@1.0.0 </tspan>
<tspan x="10" y="1770">  │ │ │ │   ├── core-util-is@1.0.2 </tspan>
<tspan x="10" y="1786">  │ │ │ │   ├── isarray@1.0.0 </tspan>
<tspan x="10" y="1802">  │ │ │ │   ├── process-nextick-args@1.0.7 </tspan>
<tspan x="10" y="1818">  │ │ │ │   ├── string_decoder@1.0.0 </tspan>
<tspan x="10" y="1834">  │ │ │ │   └── util-deprecate@1.0.2 </tspan>
<tspan x="10" y="1850">  │ │ │ ├── lodash.assignin@4.2.0 </tspan>
<tspan x="10" y="1866">  │ │ │ ├── lodash.bind@4.2.1 </tspan>
<tspan x="10" y="1882">  │ │ │ ├── lodash.defaults@4.2.0 </tspan>
<tspan x="10" y="1898">  │ │ │ ├── lodash.filter@4.6.0 </tspan>
<tspan x="10" y="1914">  │ │ │ ├── lodash.flatten@4.4.0 </tspan>
<tspan x="10" y="1930">  │ │ │ ├── lodash.foreach@4.5.0 </tspan>
<tspan x="10" y="1946">  │ │ │ ├── lodash.map@4.6.0 </tspan>
<tspan x="10" y="1962">  │ │ │ ├── lodash.merge@4.6.0 </tspan>
<tspan x="10" y="1978">  │ │ │ ├── lodash.pick@4.4.0 </tspan>
<tspan x="10" y="1994">  │ │ │ ├── lodash.reduce@4.6.0 </tspan>
<tspan x="10" y="2010">  │ │ │ ├── lodash.reject@4.6.0 </tspan>
<tspan x="10" y="2026">  │ │ │ └── lodash.some@4.6.0 </tspan>
<tspan x="10" y="2042">  │ │ ├─┬ function.prototype.name@1.0.0 </tspan>
<tspan x="10" y="2058">  │ │ │ ├─┬ define-properties@1.1.2 </tspan>
<tspan x="10" y="2074">  │ │ │ │ └── foreach@2.0.5 </tspan>
<tspan x="10" y="2090">  │ │ │ ├── function-bind@1.1.0 </tspan>
<tspan x="10" y="2106">  │ │ │ └── is-callable@1.1.3 </tspan>
<tspan x="10" y="2122">  │ │ ├── is-subset@0.1.1 </tspan>
<tspan x="10" y="2138">  │ │ ├── object-is@1.0.1 </tspan>
<tspan x="10" y="2154">  │ │ ├─┬ object.assign@4.0.4 </tspan>
<tspan x="10" y="2170">  │ │ │ └── object-keys@1.0.11 </tspan>
<tspan x="10" y="2186">  │ │ ├─┬ object.entries@1.0.4 </tspan>
<tspan x="10" y="2202">  │ │ │ ├─┬ es-abstract@1.7.0 </tspan>
<tspan x="10" y="2218">  │ │ │ │ ├─┬ es-to-primitive@1.1.1 </tspan>
<tspan x="10" y="2234">  │ │ │ │ │ ├── is-date-object@1.0.1 </tspan>
<tspan x="10" y="2250">  │ │ │ │ │ └── is-symbol@1.0.1 </tspan>
<tspan x="10" y="2266">  │ │ │ │ └── is-regex@1.0.4 </tspan>
<tspan x="10" y="2282">  │ │ │ └── has@1.0.1 </tspan>
<tspan x="10" y="2298">  │ │ ├── object.values@1.0.4 </tspan>
<tspan x="10" y="2314">  │ │ └── uuid@2.0.3 </tspan>
<tspan x="10" y="2330">  │ ├─┬ json2mq@0.2.0 </tspan>
<tspan x="10" y="2346">  │ │ └── string-convert@0.2.1 </tspan>
<tspan x="10" y="2362">  │ ├── UNMET PEER DEPENDENCY react@0.13.x || 0.14.x || ^15.0.0-0 || 15.x</tspan>
<tspan x="10" y="2378">  │ ├─┬ react-responsive-mixin@0.4.0 </tspan>
<tspan x="10" y="2394">  │ │ ├── can-use-dom@0.1.0 </tspan>
<tspan x="10" y="2410">  │ │ └── enquire.js@2.1.6 </tspan>
<tspan x="10" y="2426">  │ ├── react-test-renderer@15.5.4 </tspan>
<tspan x="10" y="2442">  │ └─┬ slick-carousel@1.6.0 </tspan>
<tspan x="10" y="2458">  │   └── jquery@3.2.1 </tspan>
<tspan x="10" y="2474">  ├─┬ shallowequal@0.2.2 </tspan>
<tspan x="10" y="2490">  │ └─┬ lodash.keys@3.1.2 </tspan>
<tspan x="10" y="2506">  │   ├── lodash._getnative@3.9.1 </tspan>
<tspan x="10" y="2522">  │   ├── lodash.isarguments@3.1.0 </tspan>
<tspan x="10" y="2538">  │   └── lodash.isarray@3.0.4 </tspan>
<tspan x="10" y="2554">  └─┬ warning@3.0.0 </tspan>
<tspan x="10" y="2570">    └─┬ loose-envify@1.3.1 </tspan>
<tspan x="10" y="2586">      └── js-tokens@3.0.1</tspan>
</text>
</svg>
